<svg id="canvas" height="auto" xmlns="http://www.w3.org/2000/svg" version="1.1" xmlns:xlink="http://www.w3.org/1999/xlink" viewBox="0 0 900 512" width="auto" style="width: auto; height: auto;"><rect width="900" height="512" fill="#ffffffff"/><path d="M119.43948020514455 306.312281582154C78.9557361485634 319.49016942135006 26.59851745296919 301.39806391269667 -18.567717350463624 300.2346164436326C-63.73395215389644 299.07116897456854 -113.16936843202043 312.96178435882405 -151.55792861545248 299.33159676776927C-189.94648879888453 285.7014091767145 -217.61551359909203 248.66378997503693 -248.89907845105589 218.4534908973037C-280.18264330301974 188.24319181957048 -322.6835981205656 158.53257178709896 -339.2593177272357 118.06980230137003C-355.83503733390586 77.6070328156411 -348.2580348629876 21.40900291276847 -348.35339609107666 -24.323126017069853C-348.44875731916574 -70.05525494690818 -355.4236756364853 -117.38220720927941 -339.8314850957703 -156.3229712776599C-324.23929455505527 -195.26373534604036 -283.6341976450839 -226.5740630168427 -254.8002528467864 -257.9677104273527C-225.96630804848894 -289.3613578378628 -206.29287987509238 -330.884678182339 -166.82781630598558 -344.68485574072C-127.36275273687878 -358.4850332991011 -65.01347718707592 -341.0896712114691 -18.009871432145587 -340.7687757776392C28.993734322784746 -340.44788034380923 70.54938888020246 -357.99104462410867 115.19381822359628 -342.75948313774023C159.83824756699005 -327.5279216513718 212.10115085995574 -282.81628026216043 249.85670462821724 -249.37940685942854C287.61225839647875 -215.94253345669665 322.76825166325125 -183.89499121987467 341.7271408331652 -142.13824272134897C360.68603000307917 -100.38149422282328 362.8064466981874 -46.34750872236094 363.6100396477011 1.161084131725545C364.4136325972148 48.66967698581203 369.7612473066938 106.24561352371484 346.5486985302475 142.91331440316992C323.33614975380124 179.581015282625 262.18628337654036 193.93412821195875 224.3347469890232 221.1672894084561C186.48321060150602 248.40045060495345 159.92322426172564 293.13439374295797 119.43948020514455 306.312281582154C78.9557361485634 319.49016942135006 26.59851745296919 301.39806391269667 -18.567717350463624 300.2346164436326 " fill="url(#SvgjsLinearGradient1012)"/><defs><linearGradient gradientTransform="matrix(1,0,0,1,0,0)" id="SvgjsLinearGradient1012"><stop stop-color="#4ec6f8ff" offset="0"/><stop stop-color="#804ef8ff" offset="1"/></linearGradient><linearGradient gradientTransform="matrix(1,0,0,1,0,0)" id="SvgjsLinearGradient1013"><stop stop-color="#4ec6f8ff" offset="0"/><stop stop-color="#804ef8ff" offset="1"/></linearGradient></defs><path d="M1031.8744689888945 946.8575904729839C986.5318401778394 954.0565936429787 915.650130326253 910.2513803335656 866.8248221946619 901.6368260713164C817.9995140630708 893.0222718090671 775.6595213062039 903.8783173972346 738.9226201993479 895.1702648994885C702.1857190924918 886.4622124017425 676.2801524355687 874.6291193967306 646.4034155535254 849.38851108484C616.5266786714822 824.1479027729495 574.7901581208791 787.4152567429181 559.6621989070882 743.7266150281451C544.5342396932973 700.0379733133723 555.8947287778985 634.7074854501525 555.6356602707797 587.2566607962024C555.3765917636609 539.8058361422522 541.5937028647434 494.5173801939902 558.1077878643755 459.02166710444453C574.6218728640074 423.52595401489884 622.301531531688 404.2371997851143 654.7201702685719 374.28238225892835C687.1388090054558 344.3275647327425 712.3750130088639 296.9632235800475 752.6196202856786 279.29276194732915C792.8642275624933 261.6223003146108 849.0699595793474 268.16858476579506 896.1878139294602 268.25961246261824C943.3056682795727 268.3506401594414 1006.1446243273801 265.38971031637493 1035.3267463863547 279.8389281282681C1064.5088684453292 294.28814594016126 1052.2252723669112 326.5683497364562 1071.2805462833076 354.9549193339773C1090.335820199704 383.34148893149825 1118.9072792886777 405.5907719328548 1149.6583898847327 450.15834571339434C1180.4095004807878 494.7259194939339 1239.9275411667904 570.0485928726222 1255.7872098596372 622.3603620172145C1271.646878552484 674.6721311618068 1264.3008378415875 724.6818864085923 1244.8164020418133 764.0289605809479C1225.331966242039 803.3760347533035 1174.3709172364788 827.9713687360088 1138.8805950609922 858.4428070513482C1103.390272885506 888.9142453666875 1077.2170977999494 939.6585873029892 1031.8744689888945 946.8575904729839C986.5318401778394 954.0565936429787 915.650130326253 910.2513803335656 866.8248221946619 901.6368260713164 " fill="url(#SvgjsLinearGradient1013)" transform="matrix(-1,1.2246467991473532e-16,-1.2246467991473532e-16,-1,1814.423095703125,1214.653076171875)"/></svg>