<svg id="visual" viewBox="0 0 900 600" width="900" height="600" xmlns="http://www.w3.org/2000/svg" xmlns:xlink="http://www.w3.org/1999/xlink" version="1.1"><path d="M0 169L13.7 155C27.3 141 54.7 113 82 107C109.3 101 136.7 117 163.8 135C191 153 218 173 245.2 175C272.3 177 299.7 161 327 164C354.3 167 381.7 189 409 199C436.3 209 463.7 207 491 201C518.3 195 545.7 185 573 191C600.3 197 627.7 219 654.8 225C682 231 709 221 736.2 214C763.3 207 790.7 203 818 204C845.3 205 872.7 211 886.3 214L900 217L900 0L886.3 0C872.7 0 845.3 0 818 0C790.7 0 763.3 0 736.2 0C709 0 682 0 654.8 0C627.7 0 600.3 0 573 0C545.7 0 518.3 0 491 0C463.7 0 436.3 0 409 0C381.7 0 354.3 0 327 0C299.7 0 272.3 0 245.2 0C218 0 191 0 163.8 0C136.7 0 109.3 0 82 0C54.7 0 27.3 0 13.7 0L0 0Z" fill="#6198ff"></path><path d="M0 271L13.7 248C27.3 225 54.7 179 82 170C109.3 161 136.7 189 163.8 215C191 241 218 265 245.2 264C272.3 263 299.7 237 327 238C354.3 239 381.7 267 409 281C436.3 295 463.7 295 491 284C518.3 273 545.7 251 573 256C600.3 261 627.7 293 654.8 301C682 309 709 293 736.2 289C763.3 285 790.7 293 818 291C845.3 289 872.7 277 886.3 271L900 265L900 215L886.3 212C872.7 209 845.3 203 818 202C790.7 201 763.3 205 736.2 212C709 219 682 229 654.8 223C627.7 217 600.3 195 573 189C545.7 183 518.3 193 491 199C463.7 205 436.3 207 409 197C381.7 187 354.3 165 327 162C299.7 159 272.3 175 245.2 173C218 171 191 151 163.8 133C136.7 115 109.3 99 82 105C54.7 111 27.3 139 13.7 153L0 167Z" fill="#3c80ff"></path><path d="M0 325L13.7 317C27.3 309 54.7 293 82 297C109.3 301 136.7 325 163.8 340C191 355 218 361 245.2 363C272.3 365 299.7 363 327 374C354.3 385 381.7 409 409 417C436.3 425 463.7 417 491 398C518.3 379 545.7 349 573 343C600.3 337 627.7 355 654.8 364C682 373 709 373 736.2 369C763.3 365 790.7 357 818 366C845.3 375 872.7 401 886.3 414L900 427L900 263L886.3 269C872.7 275 845.3 287 818 289C790.7 291 763.3 283 736.2 287C709 291 682 307 654.8 299C627.7 291 600.3 259 573 254C545.7 249 518.3 271 491 282C463.7 293 436.3 293 409 279C381.7 265 354.3 237 327 236C299.7 235 272.3 261 245.2 262C218 263 191 239 163.8 213C136.7 187 109.3 159 82 168C54.7 177 27.3 223 13.7 246L0 269Z" fill="#0066ff"></path><path d="M0 553L13.7 544C27.3 535 54.7 517 82 513C109.3 509 136.7 519 163.8 522C191 525 218 521 245.2 526C272.3 531 299.7 545 327 547C354.3 549 381.7 539 409 526C436.3 513 463.7 497 491 492C518.3 487 545.7 493 573 497C600.3 501 627.7 503 654.8 503C682 503 709 501 736.2 499C763.3 497 790.7 495 818 496C845.3 497 872.7 501 886.3 503L900 505L900 425L886.3 412C872.7 399 845.3 373 818 364C790.7 355 763.3 363 736.2 367C709 371 682 371 654.8 362C627.7 353 600.3 335 573 341C545.7 347 518.3 377 491 396C463.7 415 436.3 423 409 415C381.7 407 354.3 383 327 372C299.7 361 272.3 363 245.2 361C218 359 191 353 163.8 338C136.7 323 109.3 299 82 295C54.7 291 27.3 307 13.7 315L0 323Z" fill="#0059dd"></path><path d="M0 601L13.7 601C27.3 601 54.7 601 82 601C109.3 601 136.7 601 163.8 601C191 601 218 601 245.2 601C272.3 601 299.7 601 327 601C354.3 601 381.7 601 409 601C436.3 601 463.7 601 491 601C518.3 601 545.7 601 573 601C600.3 601 627.7 601 654.8 601C682 601 709 601 736.2 601C763.3 601 790.7 601 818 601C845.3 601 872.7 601 886.3 601L900 601L900 503L886.3 501C872.7 499 845.3 495 818 494C790.7 493 763.3 495 736.2 497C709 499 682 501 654.8 501C627.7 501 600.3 499 573 495C545.7 491 518.3 485 491 490C463.7 495 436.3 511 409 524C381.7 537 354.3 547 327 545C299.7 543 272.3 529 245.2 524C218 519 191 523 163.8 520C136.7 517 109.3 507 82 511C54.7 515 27.3 533 13.7 542L0 551Z" fill="#004cbb"></path></svg>